<svg width="350" height="350" viewBox="0 0 350 350" fill="none" xmlns="http://www.w3.org/2000/svg">
<path d="M350 175C350 78.3502 271.65 0 175 0C78.3502 0 0 78.3502 0 175C0 271.65 78.3502 350 175 350C271.65 350 350 271.65 350 175Z" fill="#03254C"/>
<path d="M55.3984 259.544L137.203 117.643L151.784 141.943L108.041 218.418L196.236 195.9L144.161 106.121L171.698 58.3242L258.346 206.526L55.3984 259.544Z" fill="#FFAD4F"/>
<path d="M46.6621 285.819L261.051 212.57L303.68 285.803L46.6621 285.819Z" fill="black"/>
<path opacity="0.5" d="M46.6621 285.819L261.051 212.57L303.68 285.803L46.6621 285.819Z" fill="#FFAD4F"/>
</svg>
